<svg>
<symbol id="mail_icon" xmlns="http://www.w3.org/2000/svg" viewBox="0 0 24 24">
	<path fill="currentColor" d="M19.435 4.065H4.565a2.5 2.5 0 0 0-2.5 2.5v10.87a2.5 2.5 0 0 0 2.5 2.5h14.87a2.5 2.5 0 0 0 2.5-2.5V6.565a2.5 2.5 0 0 0-2.5-2.5m-14.87 1h14.87a1.49 1.49 0 0 1 1.49 1.39c-2.47 1.32-4.95 2.63-7.43 3.95a6 6 0 0 1-1.06.53a2.08 2.08 0 0 1-1.67-.39c-1.42-.75-2.84-1.51-4.25-2.26c-1.14-.6-2.3-1.21-3.44-1.82a1.49 1.49 0 0 1 1.49-1.4m16.37 12.37a1.5 1.5 0 0 1-1.5 1.5H4.565a1.5 1.5 0 0 1-1.5-1.5V7.6c2.36 1.24 4.71 2.5 7.07 3.75a5.6 5.6 0 0 0 1.35.6a2.87 2.87 0 0 0 2-.41c1.45-.76 2.89-1.53 4.34-2.29c1.04-.56 2.07-1.1 3.11-1.65Z" />
</symbol>
<symbol id="facebook_icon" xmlns="http://www.w3.org/2000/svg" viewBox="0 0 24 24">
	<path fill="currentColor" d="M17.99 1.596a28 28 0 0 0-3.037-.156C11.59 1.44 9.5 3.582 9.5 7.03v2.341H6.675a.5.5 0 0 0-.5.5v3.85a.5.5 0 0 0 .5.5H9.5v7.72a.5.5 0 0 0 .5.5h3.978a.5.5 0 0 0 .5-.5v-7.72h2.816a.5.5 0 0 0 .496-.435l.497-3.85a.5.5 0 0 0-.496-.565h-3.313V7.412c0-.97.195-1.375 1.408-1.375h2.039a.5.5 0 0 0 .5-.5V2.092a.5.5 0 0 0-.435-.496m-.565 3.44l-1.54.001c-2.157 0-2.407 1.356-2.407 2.375v2.46a.5.5 0 0 0 .499.5h3.246l-.369 2.85h-2.876a.5.5 0 0 0-.5.5v7.718H10.5v-7.718a.5.5 0 0 0-.5-.5H7.176v-2.85H10a.5.5 0 0 0 .5-.5V7.03c0-2.874 1.665-4.59 4.453-4.59c1.009 0 1.92.055 2.472.103z" />
</symbol>
<symbol id="twitter_icon" xmlns="http://www.w3.org/2000/svg"  viewBox="0 0 24 24">
	<path fill="currentColor" d="M19.913 5.322a1.034 1.034 0 0 1 .837 1.629l-1.042 1.481c-.064 5.086-1.765 8.539-5.056 10.264A10.9 10.9 0 0 1 9.6 19.835a12.23 12.23 0 0 1-6.2-1.524a.76.76 0 0 1-.317-.8a.77.77 0 0 1 .63-.6a20.6 20.6 0 0 0 3.745-.886C2 13.5 3.19 7.824 3.71 6.081a1.028 1.028 0 0 1 1.729-.422a9.93 9.93 0 0 0 5.995 2.95A4.19 4.19 0 0 1 12.725 5.3a4.125 4.125 0 0 1 5.7.02ZM4.521 17.794c1.862.872 6.226 1.819 9.667.016c2.955-1.549 4.476-4.732 4.521-9.461a.77.77 0 0 1 .142-.436l1.081-1.538l-.041-.053c-.518-.007-1.029-.014-1.55 0a.84.84 0 0 1-.547-.221a3.13 3.13 0 0 0-4.383-.072a3.17 3.17 0 0 0-.935 2.87a.65.65 0 0 1-.154.545a.59.59 0 0 1-.516.205a10.92 10.92 0 0 1-7.084-3.295c-.67 2.078-1.52 7.094 3.869 9.065a.63.63 0 0 1 .416.538a.63.63 0 0 1-.3.6a13.2 13.2 0 0 1-4.186 1.237m15.147-9.305" />
</symbol>
<symbol id="insta_icon" xmlns="http://www.w3.org/2000/svg"  viewBox="0 0 24 24">
	<path fill="currentColor" d="M18.437 20.937H5.563a2.5 2.5 0 0 1-2.5-2.5V5.563a2.5 2.5 0 0 1 2.5-2.5h12.874a2.5 2.5 0 0 1 2.5 2.5v12.874a2.5 2.5 0 0 1-2.5 2.5M5.563 4.063a1.5 1.5 0 0 0-1.5 1.5v12.874a1.5 1.5 0 0 0 1.5 1.5h12.874a1.5 1.5 0 0 0 1.5-1.5V5.563a1.5 1.5 0 0 0-1.5-1.5Z" />
	<path fill="currentColor" d="M12 16.594A4.595 4.595 0 1 1 16.6 12a4.6 4.6 0 0 1-4.6 4.594M12 8.4a3.595 3.595 0 1 0 3.6 3.6A3.6 3.6 0 0 0 12 8.4" />
	<circle cx="17.2" cy="6.83" r="1.075" fill="currentColor" />
</symbol>
<symbol id="youtube_icon" xmlns="http://www.w3.org/2000/svg" viewBox="0 0 24 24">
	<path fill="currentColor" d="m14.792 10.775l-3.668-2.112A1.417 1.417 0 0 0 9 9.89v4.222c-.003.506.267.974.706 1.224a1.41 1.41 0 0 0 1.419.002l3.667-2.112a1.413 1.413 0 0 0 0-2.45m-.5 1.582l-3.666 2.113a.41.41 0 0 1-.419 0A.41.41 0 0 1 10 14.11V9.89a.41.41 0 0 1 .207-.359a.4.4 0 0 1 .418 0l3.667 2.113a.41.41 0 0 1 0 .714M19 4H5a3.003 3.003 0 0 0-3 3v10a3.003 3.003 0 0 0 3 3h14a3.003 3.003 0 0 0 3-3V7a3.003 3.003 0 0 0-3-3m2 13a2.003 2.003 0 0 1-2 2H5a2.003 2.003 0 0 1-2-2V7a2.003 2.003 0 0 1 2-2h14a2.003 2.003 0 0 1 2 2z" />
</symbol>
<symbol id="user_icon" xmlns="http://www.w3.org/2000/svg" viewBox="0 0 24 24">
	<g fill="none" stroke="currentColor" stroke-linecap="round" stroke-width="1">
		<circle cx="12" cy="8" r="3.5" />
		<path d="M4.85 16.948c.639-2.345 3.065-3.448 5.495-3.448h3.31c2.43 0 4.856 1.103 5.496 3.448a10 10 0 0 1 .295 1.553c.06.55-.394.999-.946.999h-13c-.552 0-1.005-.45-.946-.998a10 10 0 0 1 .295-1.554Z" />
	</g>
</symbol>
<symbol id="cart_icon" xmlns="http://www.w3.org/2000/svg"  viewBox="0 0 21 21">
	<g fill="none" fill-rule="evenodd">
		<path stroke="currentColor" stroke-linecap="round" stroke-linejoin="round" d="M5 6.5h12.5l-1.586 5.55a2 2 0 0 1-1.923 1.45h-6.7a2 2 0 0 1-1.989-1.78L4.5 4.5h-2" stroke-width="1" />
		<g fill="currentColor" transform="translate(2 4)">
			<circle cx="5" cy="12" r="1" />
			<circle cx="13" cy="12" r="1" />
		</g>
	</g>
</symbol>
<symbol id="search_icon" xmlns="http://www.w3.org/2000/svg" viewBox="0 0 24 24">
	<g fill="none" stroke="currentColor" stroke-width="1">
		<circle cx="11" cy="11" r="5.5" />
		<path stroke-linecap="round" stroke-linejoin="round" d="m15 15l4 4" />
	</g>
</symbol>
<symbol id="close_icon" xmlns="http://www.w3.org/2000/svg"  viewBox="0 0 24 24">
	<path fill="currentColor" d="m12 12.727l-3.592 3.592q-.16.16-.354.15T7.7 16.3t-.16-.364q0-.203.16-.363L11.273 12L7.681 8.433q-.16-.16-.15-.364t.169-.363t.364-.16q.203 0 .363.16L12 11.298l3.567-3.592q.16-.16.354-.16t.354.16q.166.165.166.366t-.166.36L12.702 12l3.592 3.592q.16.16.16.354t-.16.354q-.165.166-.366.166t-.36-.166z" />
</symbol>
<symbol id="filter_icon" xmlns="http://www.w3.org/2000/svg"  viewBox="0 0 24 24">
	<path fill="currentColor" d="M14.037 20.937a1 1 0 0 1-.518-.145l-3.334-2a2.55 2.55 0 0 1-1.233-2.176v-4.525a1.53 1.53 0 0 0-.284-.891L4.013 4.658a1.01 1.01 0 0 1 .822-1.6h14.33a1.009 1.009 0 0 1 .822 1.6L15.332 11.2a1.53 1.53 0 0 0-.285.891v7.834a1.013 1.013 0 0 1-1.01 1.012M4.835 4.063l4.647 6.557a2.5 2.5 0 0 1 .47 1.471v4.524a1.54 1.54 0 0 0 .747 1.318l3.334 2l.014-7.843a2.5 2.5 0 0 1 .471-1.471l4.654-6.542Z" />
</symbol>
<symbol id="up_icon" xmlns="http://www.w3.org/2000/svg" viewBox="0 0 24 24">
	<g fill="none" fill-rule="evenodd">
		<path d="M24 0v24H0V0zM12.593 23.258l-.011.002l-.071.035l-.02.004l-.014-.004l-.071-.035q-.016-.005-.024.005l-.004.01l-.017.428l.005.02l.01.013l.104.074l.015.004l.012-.004l.104-.074l.012-.016l.004-.017l-.017-.427q-.004-.016-.017-.018m.265-.113l-.013.002l-.185.093l-.01.01l-.003.011l.018.43l.005.012l.008.007l.201.093q.019.005.029-.008l.004-.014l-.034-.614q-.005-.019-.02-.022m-.715.002a.02.02 0 0 0-.027.006l-.006.014l-.034.614q.001.018.017.024l.015-.002l.201-.093l.01-.008l.004-.011l.017-.43l-.003-.012l-.01-.01z" />
		<path fill="currentColor" d="M11.293 8.293a1 1 0 0 1 1.414 0l5.657 5.657a1 1 0 0 1-1.414 1.414L12 10.414l-4.95 4.95a1 1 0 0 1-1.414-1.414z" />
	</g>
</symbol>
<symbol id="upDown_icon" xmlns="http://www.w3.org/2000/svg" viewBox="0 0 24 24">
	<path fill="none" stroke="currentColor" stroke-linecap="round" stroke-linejoin="round" stroke-width="1.5" d="M7.5 17.5v-11m0 0L11 10M7.5 6.5L4 10m12.5-3.5v11m0 0L20 14m-3.5 3.5L13 14" />
</symbol>
<symbol id="star_icon" xmlns="http://www.w3.org/2000/svg" viewBox="0 0 24 24" fill="currentColor" stroke="gray" stroke-width="1" stroke-linecap="round" stroke-linejoin="round" class="lucide lucide-star h-3 w-3 text-yellow-400 fill-current" aria-hidden="true"><path d="M11.525 2.295a.53.53 0 0 1 .95 0l2.31 4.679a2.123 2.123 0 0 0 1.595 1.16l5.166.756a.53.53 0 0 1 .294.904l-3.736 3.638a2.123 2.123 0 0 0-.611 1.878l.882 5.14a.53.53 0 0 1-.771.56l-4.618-2.428a2.122 2.122 0 0 0-1.973 0L6.396 21.01a.53.53 0 0 1-.77-.56l.881-5.139a2.122 2.122 0 0 0-.611-1.879L2.16 9.795a.53.53 0 0 1 .294-.906l5.165-.755a2.122 2.122 0 0 0 1.597-1.16z"></path></symbol>
<symbol id="visa_icon" xmlns="http://www.w3.org/2000/svg"  viewBox="0 0 256 114">
	<path fill="#1a1f71" d="M97.197 1.46L63.68 81.418H41.814L25.32 17.604c-1-3.921-1.869-5.364-4.912-7.022C15.434 7.88 7.22 5.353 0 3.781L.487 1.46h35.204c4.48 0 8.514 2.983 9.54 8.148l8.715 46.273L75.462 1.46zm29.56 0l-17.103 79.958H88.966L106.071 1.46zm56.116 53.852c.086-21.099-29.174-22.27-28.983-31.697c.07-2.866 2.8-5.917 8.776-6.697c2.96-.383 11.138-.688 20.401 3.58l3.624-16.966C181.714 1.732 175.309 0 167.342 0c-20.45 0-34.835 10.862-34.95 26.428c-.134 11.514 10.275 17.931 18.103 21.766c8.063 3.916 10.767 6.433 10.73 9.933c-.058 5.365-6.44 7.74-12.373 7.828c-10.404.165-16.435-2.812-21.246-5.053l-3.755 17.528c4.84 2.218 13.76 4.145 22.999 4.243c21.74 0 35.959-10.737 36.023-27.36m54 26.106H256L239.29 1.46h-17.647c-3.98 0-7.325 2.31-8.809 5.861l-31.04 74.097h21.723l4.309-11.944h26.54zm-23.09-28.329l10.892-30.027l6.257 30.027zm-60.55 50.338h-8.406v7.823h9.402v2.352h-12.234V91.9h11.752v2.352h-8.92v6.857h8.405zm5.339-12.686h2.832v22.86h-2.832zm9.978 15.583c.064 3.833 2.48 5.41 5.344 5.41c2.03 0 3.285-.354 4.317-.804l.514 2.029c-.998.45-2.736.997-5.217.997c-4.796 0-7.661-3.187-7.661-7.889c0-4.7 2.767-8.372 7.308-8.372c5.12 0 6.44 4.445 6.44 7.31c0 .579-.033.997-.098 1.32zm8.307-2.028c.033-1.77-.74-4.572-3.928-4.572c-2.898 0-4.122 2.608-4.348 4.572zm18.154 8.758c-.74.355-2.383.903-4.475.903c-4.701 0-7.76-3.188-7.76-7.954c0-4.798 3.283-8.307 8.371-8.307c1.674 0 3.155.417 3.928.837l-.642 2.157c-.679-.354-1.741-.742-3.286-.742c-3.575 0-5.505 2.673-5.505 5.895c0 3.605 2.318 5.827 5.409 5.827c1.61 0 2.672-.386 3.477-.74zm7.948-18.772v3.735h4.056v2.156h-4.056v8.405c0 1.934.548 3.027 2.125 3.027c.772 0 1.224-.063 1.643-.194l.129 2.16c-.548.192-1.417.385-2.512.385c-1.321 0-2.384-.451-3.059-1.19c-.773-.871-1.095-2.254-1.095-4.09v-8.503h-2.416v-2.156h2.416V95.12zm8.013 8.598c0-1.836-.034-3.413-.129-4.863h2.48l.13 3.09h.094c.71-2.091 2.447-3.412 4.346-3.412c.291 0 .517.033.775.064v2.674c-.29-.066-.579-.066-.968-.066c-1.994 0-3.413 1.481-3.798 3.608a8.5 8.5 0 0 0-.097 1.32v8.308h-2.833zm25.111 2.8c0 5.764-4.026 8.276-7.76 8.276c-4.187 0-7.47-3.092-7.47-8.017c0-5.185 3.445-8.243 7.728-8.243c4.475 0 7.502 3.25 7.502 7.985m-12.333.162c0 3.413 1.932 5.99 4.701 5.99c2.706 0 4.733-2.546 4.733-6.055c0-2.64-1.32-5.958-4.669-5.958c-3.315 0-4.765 3.093-4.765 6.023m16.675-3.607c0-1.641-.034-2.93-.13-4.217h2.512l.161 2.576h.064c.773-1.45 2.576-2.898 5.152-2.898c2.156 0 5.506 1.288 5.506 6.631v9.275h-2.833v-8.984c0-2.51-.934-4.605-3.606-4.605c-1.836 0-3.286 1.321-3.799 2.898c-.13.355-.194.837-.194 1.321v9.37h-2.833z" />
</symbol>
<symbol id="paypal_icon" xmlns="http://www.w3.org/2000/svg" viewBox="0 0 14 14">
	<g fill="none">
		<path fill="#8fbffa" d="M8 1.095L2.98.015a.49.49 0 0 0-.6.37L1.02 6.793L.01 11.5a.49.49 0 0 0 .37.58l1.2.26a.493.493 0 0 0 .58-.38l1-4.678l3.44.74a3.52 3.52 0 0 0 4.26-3.43A3.59 3.59 0 0 0 8 1.096M6.64 5.753l-3-.65l.55-2.599l3 .65a1.32 1.32 0 1 1-.56 2.58z" />
		<path fill="#2859c5" fill-rule="evenodd" d="m4.601 7.592l2 .43a3.52 3.52 0 0 0 4.26-3.428q-.002-.31-.055-.611l.822.207c.314.08.625.189.888.379A3.59 3.59 0 0 1 14 7.46a3.52 3.52 0 0 1-4.26 3.43l-3.44-.74l-.826 3.46a.49.49 0 0 1-.58.38l-1.2-.26a.49.49 0 0 1-.37-.58z" clip-rule="evenodd" />
	</g>
</symbol>
<symbol id="gpay_icon" xmlns="http://www.w3.org/2000/svg" viewBox="0 0 512 204">
	<path fill="#1678f1ff" d="M362.927 55.057c14.075 0 24.952 3.839 33.27 11.517c8.317 7.677 12.155 17.914 12.155 30.71v61.42h-17.914V144.63h-.64c-7.677 11.517-18.554 17.275-31.35 17.275c-10.877 0-20.474-3.2-28.151-9.597c-7.038-6.398-11.517-15.355-11.517-24.952q0-15.356 11.517-24.953c7.677-6.398 18.554-8.957 31.35-8.957c11.516 0 20.474 1.92 27.511 6.398v-4.478c0-5.972-2.229-11.943-6.688-15.834l-.99-.801c-5.118-4.479-11.516-7.038-18.553-7.038q-16.315 0-24.953 13.436L321.34 74.89c10.236-13.436 23.672-19.834 41.587-19.834M272.715 11.55c11.48 0 22.39 3.995 31.113 11.445l1.517 1.35c8.957 7.678 13.435 19.195 13.435 31.351s-4.478 23.033-13.435 31.35s-19.834 12.796-32.63 12.796l-30.71-.64v59.502H222.81V11.55zm92.77 97.25q-11.516 0-19.193 5.758q-7.678 4.798-7.678 13.435c0 5.119 2.56 9.597 6.398 12.157c4.479 3.199 9.597 5.118 14.716 5.118c7.165 0 14.331-2.787 19.936-7.84l1.177-1.117c6.398-5.758 9.597-12.796 9.597-20.474c-5.758-4.478-14.076-7.038-24.952-7.038m-91.49-79.336h-31.99V80.65h31.99c7.037 0 14.075-2.559 18.554-7.677c10.236-9.597 10.236-25.592.64-35.19l-.64-.64c-5.119-5.118-11.517-8.317-18.555-7.677M512 58.256l-63.34 145.235h-19.194l23.672-50.544l-41.587-94.051h20.474l30.07 72.297h.64l29.431-72.297H512z" />
	<path fill="#4285f4" d="M165.868 86.407c0-5.758-.64-11.516-1.28-17.274H84.615v32.63h45.425c-1.919 10.236-7.677 19.833-16.634 25.592v21.113h27.511c15.995-14.715 24.952-36.469 24.952-62.06" />
	<path fill="#34a853" d="M84.614 168.942c23.032 0 42.226-7.678 56.302-20.474l-27.511-21.113c-7.678 5.118-17.275 8.317-28.791 8.317c-21.754 0-40.948-14.715-47.346-35.189H9.118v21.753c14.715 28.791 43.506 46.706 75.496 46.706" />
	<path fill="#fbbc04" d="M37.268 100.483c-3.838-10.237-3.838-21.753 0-32.63V46.1H9.118c-12.157 23.673-12.157 51.824 0 76.136z" />
	<path fill="#ea4335" d="M84.614 33.304c12.156 0 23.672 4.479 32.63 12.796l24.312-24.312C126.2 7.712 105.727-.605 85.253.034c-31.99 0-61.42 17.915-75.496 46.706l28.151 21.753c5.758-20.474 24.952-35.189 46.706-35.189" />
</symbol>
<symbol id="bitcoin_icon" xmlns="http://www.w3.org/2000/svg" viewBox="0 0 24 24">
	<path fill="#f7931a" d="M18.763 10.236c.279-1.895-1.155-2.905-3.131-3.591l.64-2.553l-1.56-.389l-.623 2.49l-1.245-.297l.631-2.508L11.915 3l-.641 2.562l-.992-.234v-.01l-2.157-.54l-.415 1.668s1.155.272 1.137.28c.631.163.74.578.722.903l-.723 2.923l.163.054l-.171-.036l-1.02 4.087c-.072.19-.27.478-.712.36c.018.028-1.128-.27-1.128-.27l-.776 1.778l2.03.505l1.11.289l-.65 2.59l1.56.387l.633-2.562l1.253.324l-.64 2.554l1.56.388l.641-2.59c2.662.505 4.665.307 5.505-2.102c.676-1.94-.037-3.05-1.435-3.79c1.02-.225 1.786-.902 1.985-2.282zm-3.564 4.999c-.479 1.94-3.745.884-4.8.63l.857-3.436c1.055.27 4.448.784 3.943 2.796zm.478-5.026c-.433 1.76-3.158.866-4.033.65l.775-3.113c.885.217 3.718.632 3.258 2.463" />
</symbol>
<symbol id="delete_icon" xmlns="http://www.w3.org/2000/svg" viewBox="0 0 32 32">
	<path fill="currentColor" d="M14 12.5a.5.5 0 0 0-1 0v11a.5.5 0 0 0 1 0zm4.5-.5a.5.5 0 0 1 .5.5v11a.5.5 0 0 1-1 0v-11a.5.5 0 0 1 .5-.5m2-5.5V7h8a.5.5 0 0 1 0 1h-2.543l-1.628 17.907A4.5 4.5 0 0 1 19.847 30h-7.694a4.5 4.5 0 0 1-4.482-4.093L6.043 8H3.5a.5.5 0 0 1 0-1h8v-.5a4.5 4.5 0 1 1 9 0m-8 0V7h7v-.5a3.5 3.5 0 1 0-7 0M7.048 8l1.62 17.817A3.5 3.5 0 0 0 12.152 29h7.694a3.5 3.5 0 0 0 3.486-3.183L24.953 8z" />
</symbol>

<symbol id="elite_icon" xmlns="http://www.w3.org/2000/svg" xmlns:xlink="http://www.w3.org/1999/xlink" viewBox="0 0 207 54" preserveAspectRatio="xMidYMid" style="display: block; shape-rendering: auto; background: rgb(210, 211, 212);" ><style type="text/css">
  .ld-text text {
    text-anchor: middle;
    dominant-baseline: middle;
    font-size: 36px;
    opacity: 0;
    user-select: none;
    pointer-events: none;
  }
</style>
<g style="transform-origin:103.5px 27px;transform:scale(1)" class="ld-text">
<g transform="translate(103.5,27)">
  <g transform="scale(0.4500) translate(0,0)"><g class="path" style="opacity: 1; transform-origin: -163.12px -1.12px; transform: matrix3d(0.91, 0, 0, 0, 0, 0.91, 0, 0, 0, 0, 0.91, 0, 0, 0, 0, 1); animation: 0.787402s linear -0.472441s infinite normal forwards running animate-4coaqlcyn3h; transform-box: view-box;"><path d="M40.80 53.75L7.20 53.75L7.20-2.25L40.80-2.25L40.80 4.31L14.80 4.31L14.80 21.35L37.20 21.35L37.20 27.75L14.80 27.75L14.80 47.19L40.80 47.19L40.80 53.75" style="fill: rgb(34, 34, 34);" transform="translate(-187.120,-26.873)"></path></g><g class="path" style="opacity: 1; transform-origin: -127.68px -2.24px; transform: matrix3d(0.91, 0, 0, 0, 0, 0.91, 0, 0, 0, 0, 0.91, 0, 0, 0, 0, 1); animation: 0.787402s linear -0.425197s infinite normal forwards running animate-4coaqlcyn3h; transform-box: view-box;"><path d="M61.84 54.71L61.84 54.71Q58.16 54.71 55.20 53.31Q52.24 51.91 50.52 48.79Q48.80 45.67 48.80 40.71L48.80 40.71L48.80-5.45L56-5.45L56 39.99Q56 44.31 57.80 46.39Q59.60 48.47 62.80 48.47L62.80 48.47Q64.32 48.47 65.80 48.11Q67.28 47.75 68.32 47.27L68.32 47.27L70.08 53.11Q68.64 53.75 66.52 54.23Q64.40 54.71 61.84 54.71" style="fill: rgb(34, 34, 34);" transform="translate(-187.120,-26.873)"></path></g><g class="path" style="opacity: 1; transform-origin: -106.64px 6.08px; transform: matrix3d(0.91, 0, 0, 0, 0, 0.91, 0, 0, 0, 0, 0.91, 0, 0, 0, 0, 1); animation: 0.787402s linear -0.377953s infinite normal forwards running animate-4coaqlcyn3h; transform-box: view-box;"><path d="M84.08 53.75L76.88 53.75L76.88 12.15L84.08 12.15L84.08 53.75" style="fill: rgb(34, 34, 34);" transform="translate(-187.120,-26.873)"></path></g><g class="path" style="opacity: 1; transform-origin: -106.64px -26.88px; transform: matrix3d(0.91, 0, 0, 0, 0, 0.91, 0, 0, 0, 0, 0.91, 0, 0, 0, 0, 1); animation: 0.787402s linear -0.330709s infinite normal forwards running animate-4coaqlcyn3h; transform-box: view-box;"><path d="M80.48 5.03L80.48 5.03Q78.40 5.03 76.92 3.51Q75.44 1.99 75.44-0.01L75.44-0.01Q75.44-2.33 76.80-3.69Q78.16-5.05 80.48-5.05L80.48-5.05Q82.56-5.05 84.04-3.57Q85.52-2.09 85.52-0.01L85.52-0.01Q85.52 2.23 84.16 3.63Q82.80 5.03 80.48 5.03" style="fill: rgb(34, 34, 34);" transform="translate(-187.120,-26.873)"></path></g><g class="path" style="opacity: 1; transform-origin: -80.76px 0.76px; transform: matrix3d(0.91, 0, 0, 0, 0, 0.91, 0, 0, 0, 0, 0.91, 0, 0, 0, 0, 1); animation: 0.787402s linear -0.283465s infinite normal forwards running animate-4coaqlcyn3h; transform-box: view-box;"><path d="M111.44 54.71L111.44 54.71Q105.44 54.71 101.96 50.75Q98.48 46.79 98.48 39.43L98.48 39.43L98.48 19.91L91.28 19.91L91.28 13.67L98.64 13.67L100.16 0.55L105.68 0.55L105.68 13.67L117.20 13.67L117.20 19.91L105.68 19.91L105.68 39.99Q105.68 44.63 107.64 46.47Q109.60 48.31 112.32 48.31L112.32 48.31Q114.32 48.31 116.12 47.67Q117.92 47.03 119.44 46.15L119.44 46.15L121.44 51.91Q119.84 52.87 117.12 53.79Q114.40 54.71 111.44 54.71" style="fill: rgb(34, 34, 34);" transform="translate(-187.120,-26.873)"></path></g><g class="path" style="opacity: 1; transform-origin: -44.52px 6.08px; transform: matrix3d(0.91, 0, 0, 0, 0, 0.91, 0, 0, 0, 0, 0.91, 0, 0, 0, 0, 1); animation: 0.787402s linear -0.23622s infinite normal forwards running animate-4coaqlcyn3h; transform-box: view-box;"><path d="M143.68 54.71L143.68 54.71Q134.72 54.71 129.48 48.99Q124.24 43.27 124.24 32.95L124.24 32.95Q124.24 26.71 126.60 21.79Q128.96 16.87 133.20 14.03Q137.44 11.19 143.04 11.19L143.04 11.19Q149.04 11.19 153 13.79Q156.96 16.39 158.96 20.79Q160.96 25.19 160.96 30.47L160.96 30.47Q160.96 33.27 160.72 35.91L160.72 35.91L131.60 35.91Q132.32 41.75 135.68 45.03Q139.04 48.31 144.56 48.31L144.56 48.31Q148.16 48.31 151.04 47.55Q153.92 46.79 156.56 45.59L156.56 45.59L158.24 51.75Q155.36 53.03 151.76 53.87Q148.16 54.71 143.68 54.71 zM131.52 30.07L131.52 30.07L154.32 30.07Q154.32 23.99 151.28 20.71Q148.24 17.43 142.88 17.43L142.88 17.43Q138.24 17.43 135.20 20.67Q132.16 23.91 131.52 30.07" style="fill: rgb(34, 34, 34);" transform="translate(-187.120,-26.873)"></path></g><g class="path" style="opacity: 1; transform-origin: 22.96px -1.12px; transform: matrix3d(0.91, 0, 0, 0, 0, 0.91, 0, 0, 0, 0, 0.91, 0, 0, 0, 0, 1); animation: 0.787402s linear -0.188976s infinite normal forwards running animate-4coaqlcyn3h; transform-box: view-box;"><path d="M209.28 54.71L209.28 54.71Q203.44 54.71 198.64 53.15Q193.84 51.59 190.56 49.03L190.56 49.03L194.40 42.63Q197.28 45.03 200.88 46.55Q204.48 48.07 209.28 48.07L209.28 48.07Q215.04 48.07 218.40 45.67Q221.76 43.27 221.76 39.19L221.76 39.19Q221.76 36.87 220.80 35.07Q219.84 33.27 217.08 31.55Q214.32 29.83 208.96 27.83L208.96 27.83Q203.20 25.59 199.76 23.31Q196.32 21.03 194.84 18.11Q193.36 15.19 193.36 11.19L193.36 11.19Q193.36 7.19 195.56 3.95Q197.76 0.71 202.04-1.25Q206.32-3.21 212.40-3.21L212.40-3.21Q217.36-3.21 221.32-2.21Q225.28-1.21 229.04 0.63L229.04 0.63L226.24 7.11Q223.52 5.51 219.88 4.43Q216.24 3.35 212.24 3.35L212.24 3.35Q206.96 3.35 203.92 5.43Q200.88 7.51 200.88 10.79L200.88 10.79Q200.88 12.87 201.76 14.47Q202.64 16.07 205.24 17.59Q207.84 19.11 213.04 21.03L213.04 21.03Q219.28 23.35 222.92 25.91Q226.56 28.47 228.08 31.47Q229.60 34.47 229.60 38.31L229.60 38.31Q229.60 43.51 227 47.19Q224.40 50.87 219.80 52.79Q215.20 54.71 209.28 54.71" style="fill: rgb(34, 34, 34);" transform="translate(-187.120,-26.873)"></path></g><g class="path" style="opacity: 1; transform-origin: 62.36px 0.76px; transform: matrix3d(0.91, 0, 0, 0, 0, 0.91, 0, 0, 0, 0, 0.91, 0, 0, 0, 0, 1); animation: 0.787402s linear -0.141732s infinite normal forwards running animate-4coaqlcyn3h; transform-box: view-box;"><path d="M254.56 54.71L254.56 54.71Q248.56 54.71 245.08 50.75Q241.60 46.79 241.60 39.43L241.60 39.43L241.60 19.91L234.40 19.91L234.40 13.67L241.76 13.67L243.28 0.55L248.80 0.55L248.80 13.67L260.32 13.67L260.32 19.91L248.80 19.91L248.80 39.99Q248.80 44.63 250.76 46.47Q252.72 48.31 255.44 48.31L255.44 48.31Q257.44 48.31 259.24 47.67Q261.04 47.03 262.56 46.15L262.56 46.15L264.56 51.91Q262.96 52.87 260.24 53.79Q257.52 54.71 254.56 54.71" style="fill: rgb(34, 34, 34);" transform="translate(-187.120,-26.873)"></path></g><g class="path" style="opacity: 1; transform-origin: 100.56px 6.08px; transform: matrix3d(0.91, 0, 0, 0, 0, 0.91, 0, 0, 0, 0, 0.91, 0, 0, 0, 0, 1); animation: 0.787402s linear -0.0944882s infinite normal forwards running animate-4coaqlcyn3h; transform-box: view-box;"><path d="M287.68 54.71L287.68 54.71Q281.76 54.71 277.04 51.95Q272.32 49.19 269.64 44.27Q266.96 39.35 266.96 32.95L266.96 32.95Q266.96 26.23 269.68 21.35Q272.40 16.47 277.12 13.83Q281.84 11.19 287.68 11.19L287.68 11.19Q293.52 11.19 298.20 13.83Q302.88 16.47 305.64 21.31Q308.40 26.15 308.40 32.79L308.40 32.79Q308.40 39.43 305.68 44.35Q302.96 49.27 298.28 51.99Q293.60 54.71 287.68 54.71 zM287.68 48.31L287.68 48.31Q294 48.31 297.52 44.03Q301.04 39.75 301.04 32.95L301.04 32.95Q301.04 28.79 299.28 25.31Q297.52 21.83 294.52 19.71Q291.52 17.59 287.68 17.59L287.68 17.59Q281.36 17.59 277.84 21.75Q274.32 25.91 274.32 32.79L274.32 32.79Q274.32 36.95 276.08 40.51Q277.84 44.07 280.84 46.19Q283.84 48.31 287.68 48.31" style="fill: rgb(34, 34, 34);" transform="translate(-187.120,-26.873)"></path></g><g class="path" style="opacity: 1; transform-origin: 143.24px 5.6px; transform: matrix3d(0.91, 0, 0, 0, 0, 0.91, 0, 0, 0, 0, 0.91, 0, 0, 0, 0, 1); animation: 0.787402s linear -0.0472441s infinite normal forwards running animate-4coaqlcyn3h; transform-box: view-box;"><path d="M325.20 53.75L318 53.75L318 12.15L324.96 12.15L324.96 21.19Q326 18.55 327.76 16.27Q329.52 13.99 332.16 12.59Q334.80 11.19 338.32 11.19L338.32 11.19Q339.52 11.19 340.72 11.31Q341.92 11.43 342.72 11.67L342.72 11.67L340.56 19.11Q339.04 18.47 336.96 18.47L336.96 18.47Q334 18.47 331.32 20.15Q328.64 21.83 326.92 25.35Q325.20 28.87 325.20 34.31L325.20 34.31L325.20 53.75" style="fill: rgb(34, 34, 34);" transform="translate(-187.120,-26.873)"></path></g><g class="path" style="opacity: 1; transform-origin: 175.96px 6.08px; transform: matrix3d(0.91, 0, 0, 0, 0, 0.91, 0, 0, 0, 0, 0.91, 0, 0, 0, 0, 1); animation: 0.787402s linear 0s infinite normal forwards running animate-4coaqlcyn3h; transform-box: view-box;"><path d="M364.16 54.71L364.16 54.71Q355.20 54.71 349.96 48.99Q344.72 43.27 344.72 32.95L344.72 32.95Q344.72 26.71 347.08 21.79Q349.44 16.87 353.68 14.03Q357.92 11.19 363.52 11.19L363.52 11.19Q369.52 11.19 373.48 13.79Q377.44 16.39 379.44 20.79Q381.44 25.19 381.44 30.47L381.44 30.47Q381.44 33.27 381.20 35.91L381.20 35.91L352.08 35.91Q352.80 41.75 356.16 45.03Q359.52 48.31 365.04 48.31L365.04 48.31Q368.64 48.31 371.52 47.55Q374.40 46.79 377.04 45.59L377.04 45.59L378.72 51.75Q375.84 53.03 372.24 53.87Q368.64 54.71 364.16 54.71 zM352 30.07L352 30.07L374.80 30.07Q374.80 23.99 371.76 20.71Q368.72 17.43 363.36 17.43L363.36 17.43Q358.72 17.43 355.68 20.67Q352.64 23.91 352 30.07" style="fill: rgb(34, 34, 34);" transform="translate(-187.120,-26.873)"></path></g></g><text dy="0.35em" fill="#222222" font-family="ABeeZee" font-size="36">Elite Store</text>
</g>
</g><style type="text/css">@keyframes animate-4coaqlcyn3h { 0.00% {transform: translate(0.00px,0.00px) rotate(0.00deg) scale(0.91, 0.91) skew(0deg, 0.00deg) ;opacity: 1.00;}4.00% {transform: translate(0.00px,0.00px) rotate(0.00deg) scale(0.91, 0.91) ;}8.00% {animation-timing-function: cubic-bezier(0.69,0.60,0.35,0.27);transform: translate(0.00px,0.00px) rotate(0.00deg) scale(0.91, 0.91) ;}14.00% {transform: translate(0.00px,0.00px) rotate(0.00deg) scale(0.93, 0.93) ;}18.00% {transform: translate(0.00px,0.00px) rotate(0.00deg) scale(0.94, 0.94) ;}22.00% {animation-timing-function: cubic-bezier(0.67,0.66,0.34,0.33);transform: translate(0.00px,0.00px) rotate(0.00deg) scale(0.96, 0.96) ;}26.00% {transform: translate(0.00px,0.00px) rotate(0.00deg) scale(0.97, 0.97) ;}30.00% {transform: translate(0.00px,0.00px) rotate(0.00deg) scale(0.99, 0.99) ;}34.00% {animation-timing-function: cubic-bezier(0.65,0.71,0.32,0.38);transform: translate(0.00px,0.00px) rotate(0.00deg) scale(1.01, 1.01) ;}40.00% {animation-timing-function: cubic-bezier(0.64,0.74,0.31,0.41);transform: translate(0.00px,0.00px) rotate(0.00deg) scale(1.02, 1.02) ;}46.00% {animation-timing-function: cubic-bezier(0.60,0.91,0.23,0.63);transform: translate(0.00px,0.00px) rotate(0.00deg) scale(1.03, 1.03) ;}50.00% {transform: translate(0.00px,0.00px) rotate(0.00deg) scale(1.03, 1.03) ;}54.00% {transform: translate(0.00px,0.00px) rotate(0.00deg) scale(1.03, 1.03) ;}58.00% {animation-timing-function: cubic-bezier(0.69,0.60,0.35,0.27);transform: translate(0.00px,0.00px) rotate(0.00deg) scale(1.03, 1.03) ;}64.00% {transform: translate(0.00px,0.00px) rotate(0.00deg) scale(1.01, 1.01) ;}68.00% {transform: translate(0.00px,0.00px) rotate(0.00deg) scale(1.00, 1.00) ;}72.00% {animation-timing-function: cubic-bezier(0.67,0.66,0.34,0.33);transform: translate(0.00px,0.00px) rotate(0.00deg) scale(0.98, 0.98) ;}76.00% {animation-timing-function: cubic-bezier(0.66,0.68,0.33,0.35);transform: translate(0.00px,0.00px) rotate(0.00deg) scale(0.97, 0.97) ;}82.00% {animation-timing-function: cubic-bezier(0.65,0.71,0.32,0.38);transform: translate(0.00px,0.00px) rotate(0.00deg) scale(0.94, 0.94) ;}88.00% {animation-timing-function: cubic-bezier(0.65,0.73,0.31,0.40);transform: translate(0.00px,0.00px) rotate(0.00deg) scale(0.92, 0.92) ;}94.00% {animation-timing-function: cubic-bezier(0.63,0.80,0.28,0.48);transform: translate(0.00px,0.00px) rotate(0.00deg) scale(0.91, 0.91) ;}100.00% {animation-timing-function: cubic-bezier(0.63,0.80,0.28,0.48);transform: translate(0.00px,0.00px) rotate(0.00deg) scale(0.91, 0.91) ;} }</style><!-- [ldio] generated by https://loading.io --></symbol>

<symbol id="imgLoader_icon" xmlns="http://www.w3.org/2000/svg" viewBox="0 0 100 100" preserveAspectRatio="xMidYMid"  style="shape-rendering: auto; display: block; background: rgb(210, 211, 212);" xmlns:xlink="http://www.w3.org/1999/xlink"><g><g transform="rotate(0 50 50)">
  <rect fill="#000000" height="12" width="6" ry="6" rx="3" y="24" x="47">
    <animate repeatCount="indefinite" begin="-0.9166666666666666s" dur="1s" keyTimes="0;1" values="1;0" attributeName="opacity"></animate>
  </rect>
</g><g transform="rotate(30 50 50)">
  <rect fill="#000000" height="12" width="6" ry="6" rx="3" y="24" x="47">
    <animate repeatCount="indefinite" begin="-0.8333333333333334s" dur="1s" keyTimes="0;1" values="1;0" attributeName="opacity"></animate>
  </rect>
</g><g transform="rotate(60 50 50)">
  <rect fill="#000000" height="12" width="6" ry="6" rx="3" y="24" x="47">
    <animate repeatCount="indefinite" begin="-0.75s" dur="1s" keyTimes="0;1" values="1;0" attributeName="opacity"></animate>
  </rect>
</g><g transform="rotate(90 50 50)">
  <rect fill="#000000" height="12" width="6" ry="6" rx="3" y="24" x="47">
    <animate repeatCount="indefinite" begin="-0.6666666666666666s" dur="1s" keyTimes="0;1" values="1;0" attributeName="opacity"></animate>
  </rect>
</g><g transform="rotate(120 50 50)">
  <rect fill="#000000" height="12" width="6" ry="6" rx="3" y="24" x="47">
    <animate repeatCount="indefinite" begin="-0.5833333333333334s" dur="1s" keyTimes="0;1" values="1;0" attributeName="opacity"></animate>
  </rect>
</g><g transform="rotate(150 50 50)">
  <rect fill="#000000" height="12" width="6" ry="6" rx="3" y="24" x="47">
    <animate repeatCount="indefinite" begin="-0.5s" dur="1s" keyTimes="0;1" values="1;0" attributeName="opacity"></animate>
  </rect>
</g><g transform="rotate(180 50 50)">
  <rect fill="#000000" height="12" width="6" ry="6" rx="3" y="24" x="47">
    <animate repeatCount="indefinite" begin="-0.4166666666666667s" dur="1s" keyTimes="0;1" values="1;0" attributeName="opacity"></animate>
  </rect>
</g><g transform="rotate(210 50 50)">
  <rect fill="#000000" height="12" width="6" ry="6" rx="3" y="24" x="47">
    <animate repeatCount="indefinite" begin="-0.3333333333333333s" dur="1s" keyTimes="0;1" values="1;0" attributeName="opacity"></animate>
  </rect>
</g><g transform="rotate(240 50 50)">
  <rect fill="#000000" height="12" width="6" ry="6" rx="3" y="24" x="47">
    <animate repeatCount="indefinite" begin="-0.25s" dur="1s" keyTimes="0;1" values="1;0" attributeName="opacity"></animate>
  </rect>
</g><g transform="rotate(270 50 50)">
  <rect fill="#000000" height="12" width="6" ry="6" rx="3" y="24" x="47">
    <animate repeatCount="indefinite" begin="-0.16666666666666666s" dur="1s" keyTimes="0;1" values="1;0" attributeName="opacity"></animate>
  </rect>
</g><g transform="rotate(300 50 50)">
  <rect fill="#000000" height="12" width="6" ry="6" rx="3" y="24" x="47">
    <animate repeatCount="indefinite" begin="-0.08333333333333333s" dur="1s" keyTimes="0;1" values="1;0" attributeName="opacity"></animate>
  </rect>
</g><g transform="rotate(330 50 50)">
  <rect fill="#000000" height="12" width="6" ry="6" rx="3" y="24" x="47">
    <animate repeatCount="indefinite" begin="0s" dur="1s" keyTimes="0;1" values="1;0" attributeName="opacity"></animate>
  </rect>
</g><g></g></g><!-- [ldio] generated by https://loading.io --></symbol>
</svg>