<svg>
<symbol id="mail_icon" xmlns="http://www.w3.org/2000/svg" viewBox="0 0 24 24">
	<path fill="currentColor" d="M19.435 4.065H4.565a2.5 2.5 0 0 0-2.5 2.5v10.87a2.5 2.5 0 0 0 2.5 2.5h14.87a2.5 2.5 0 0 0 2.5-2.5V6.565a2.5 2.5 0 0 0-2.5-2.5m-14.87 1h14.87a1.49 1.49 0 0 1 1.49 1.39c-2.47 1.32-4.95 2.63-7.43 3.95a6 6 0 0 1-1.06.53a2.08 2.08 0 0 1-1.67-.39c-1.42-.75-2.84-1.51-4.25-2.26c-1.14-.6-2.3-1.21-3.44-1.82a1.49 1.49 0 0 1 1.49-1.4m16.37 12.37a1.5 1.5 0 0 1-1.5 1.5H4.565a1.5 1.5 0 0 1-1.5-1.5V7.6c2.36 1.24 4.71 2.5 7.07 3.75a5.6 5.6 0 0 0 1.35.6a2.87 2.87 0 0 0 2-.41c1.45-.76 2.89-1.53 4.34-2.29c1.04-.56 2.07-1.1 3.11-1.65Z" />
</symbol>
<symbol id="facebook_icon" xmlns="http://www.w3.org/2000/svg" viewBox="0 0 24 24">
	<path fill="currentColor" d="M17.99 1.596a28 28 0 0 0-3.037-.156C11.59 1.44 9.5 3.582 9.5 7.03v2.341H6.675a.5.5 0 0 0-.5.5v3.85a.5.5 0 0 0 .5.5H9.5v7.72a.5.5 0 0 0 .5.5h3.978a.5.5 0 0 0 .5-.5v-7.72h2.816a.5.5 0 0 0 .496-.435l.497-3.85a.5.5 0 0 0-.496-.565h-3.313V7.412c0-.97.195-1.375 1.408-1.375h2.039a.5.5 0 0 0 .5-.5V2.092a.5.5 0 0 0-.435-.496m-.565 3.44l-1.54.001c-2.157 0-2.407 1.356-2.407 2.375v2.46a.5.5 0 0 0 .499.5h3.246l-.369 2.85h-2.876a.5.5 0 0 0-.5.5v7.718H10.5v-7.718a.5.5 0 0 0-.5-.5H7.176v-2.85H10a.5.5 0 0 0 .5-.5V7.03c0-2.874 1.665-4.59 4.453-4.59c1.009 0 1.92.055 2.472.103z" />
</symbol>
<symbol id="twitter_icon" xmlns="http://www.w3.org/2000/svg"  viewBox="0 0 24 24">
	<path fill="currentColor" d="M19.913 5.322a1.034 1.034 0 0 1 .837 1.629l-1.042 1.481c-.064 5.086-1.765 8.539-5.056 10.264A10.9 10.9 0 0 1 9.6 19.835a12.23 12.23 0 0 1-6.2-1.524a.76.76 0 0 1-.317-.8a.77.77 0 0 1 .63-.6a20.6 20.6 0 0 0 3.745-.886C2 13.5 3.19 7.824 3.71 6.081a1.028 1.028 0 0 1 1.729-.422a9.93 9.93 0 0 0 5.995 2.95A4.19 4.19 0 0 1 12.725 5.3a4.125 4.125 0 0 1 5.7.02ZM4.521 17.794c1.862.872 6.226 1.819 9.667.016c2.955-1.549 4.476-4.732 4.521-9.461a.77.77 0 0 1 .142-.436l1.081-1.538l-.041-.053c-.518-.007-1.029-.014-1.55 0a.84.84 0 0 1-.547-.221a3.13 3.13 0 0 0-4.383-.072a3.17 3.17 0 0 0-.935 2.87a.65.65 0 0 1-.154.545a.59.59 0 0 1-.516.205a10.92 10.92 0 0 1-7.084-3.295c-.67 2.078-1.52 7.094 3.869 9.065a.63.63 0 0 1 .416.538a.63.63 0 0 1-.3.6a13.2 13.2 0 0 1-4.186 1.237m15.147-9.305" />
</symbol>
<symbol id="insta_icon" xmlns="http://www.w3.org/2000/svg"  viewBox="0 0 24 24">
	<path fill="currentColor" d="M18.437 20.937H5.563a2.5 2.5 0 0 1-2.5-2.5V5.563a2.5 2.5 0 0 1 2.5-2.5h12.874a2.5 2.5 0 0 1 2.5 2.5v12.874a2.5 2.5 0 0 1-2.5 2.5M5.563 4.063a1.5 1.5 0 0 0-1.5 1.5v12.874a1.5 1.5 0 0 0 1.5 1.5h12.874a1.5 1.5 0 0 0 1.5-1.5V5.563a1.5 1.5 0 0 0-1.5-1.5Z" />
	<path fill="currentColor" d="M12 16.594A4.595 4.595 0 1 1 16.6 12a4.6 4.6 0 0 1-4.6 4.594M12 8.4a3.595 3.595 0 1 0 3.6 3.6A3.6 3.6 0 0 0 12 8.4" />
	<circle cx="17.2" cy="6.83" r="1.075" fill="currentColor" />
</symbol>
<symbol id="youtube_icon" xmlns="http://www.w3.org/2000/svg" viewBox="0 0 24 24">
	<path fill="currentColor" d="m14.792 10.775l-3.668-2.112A1.417 1.417 0 0 0 9 9.89v4.222c-.003.506.267.974.706 1.224a1.41 1.41 0 0 0 1.419.002l3.667-2.112a1.413 1.413 0 0 0 0-2.45m-.5 1.582l-3.666 2.113a.41.41 0 0 1-.419 0A.41.41 0 0 1 10 14.11V9.89a.41.41 0 0 1 .207-.359a.4.4 0 0 1 .418 0l3.667 2.113a.41.41 0 0 1 0 .714M19 4H5a3.003 3.003 0 0 0-3 3v10a3.003 3.003 0 0 0 3 3h14a3.003 3.003 0 0 0 3-3V7a3.003 3.003 0 0 0-3-3m2 13a2.003 2.003 0 0 1-2 2H5a2.003 2.003 0 0 1-2-2V7a2.003 2.003 0 0 1 2-2h14a2.003 2.003 0 0 1 2 2z" />
</symbol>
<symbol id="user_icon" xmlns="http://www.w3.org/2000/svg" viewBox="0 0 24 24">
	<g fill="none" stroke="currentColor" stroke-linecap="round" stroke-width="1">
		<circle cx="12" cy="8" r="3.5" />
		<path d="M4.85 16.948c.639-2.345 3.065-3.448 5.495-3.448h3.31c2.43 0 4.856 1.103 5.496 3.448a10 10 0 0 1 .295 1.553c.06.55-.394.999-.946.999h-13c-.552 0-1.005-.45-.946-.998a10 10 0 0 1 .295-1.554Z" />
	</g>
</symbol>
<symbol id="cart_icon" xmlns="http://www.w3.org/2000/svg"  viewBox="0 0 21 21">
	<g fill="none" fill-rule="evenodd">
		<path stroke="currentColor" stroke-linecap="round" stroke-linejoin="round" d="M5 6.5h12.5l-1.586 5.55a2 2 0 0 1-1.923 1.45h-6.7a2 2 0 0 1-1.989-1.78L4.5 4.5h-2" stroke-width="1" />
		<g fill="currentColor" transform="translate(2 4)">
			<circle cx="5" cy="12" r="1" />
			<circle cx="13" cy="12" r="1" />
		</g>
	</g>
</symbol>
<symbol id="search_icon" xmlns="http://www.w3.org/2000/svg" viewBox="0 0 24 24">
	<g fill="none" stroke="currentColor" stroke-width="1">
		<circle cx="11" cy="11" r="5.5" />
		<path stroke-linecap="round" stroke-linejoin="round" d="m15 15l4 4" />
	</g>
</symbol>
</svg>